<mxfile host="Electron" agent="Mozilla/5.0 (Macintosh; Intel Mac OS X 10_15_7) AppleWebKit/537.36 (KHTML, like Gecko) draw.io/28.0.6 Chrome/138.0.7204.100 Electron/37.2.3 Safari/537.36" version="28.0.6">
  <diagram name="Page-1" id="jSLNdykXbPT2ylI0KEvD">
    <mxGraphModel dx="1234" dy="811" grid="1" gridSize="10" guides="1" tooltips="1" connect="1" arrows="1" fold="1" page="1" pageScale="1" pageWidth="850" pageHeight="1100" math="0" shadow="0">
      <root>
        <mxCell id="0" />
        <mxCell id="1" parent="0" />
        <mxCell id="RpSjGXsyV4qDIMZ8VOqI-12" value="&lt;b&gt;&lt;font style=&quot;font-size: 23px;&quot;&gt;Data Sets&lt;/font&gt;&lt;/b&gt;" style="rounded=0;whiteSpace=wrap;html=1;align=left;verticalAlign=top;" parent="1" vertex="1">
          <mxGeometry x="37.5" y="60" width="585" height="260" as="geometry" />
        </mxCell>
        <mxCell id="RpSjGXsyV4qDIMZ8VOqI-11" value="&lt;b&gt;&lt;font style=&quot;font-size: 14px;&quot;&gt;Optional&lt;/font&gt;&lt;/b&gt;" style="rounded=0;whiteSpace=wrap;html=1;align=left;verticalAlign=top;" parent="1" vertex="1">
          <mxGeometry x="75" y="190" width="510" height="130" as="geometry" />
        </mxCell>
        <mxCell id="RpSjGXsyV4qDIMZ8VOqI-1" value="&lt;div&gt;Rifle Profiles&lt;br&gt;&lt;/div&gt;" style="rounded=1;whiteSpace=wrap;html=1;fontStyle=1" parent="1" vertex="1">
          <mxGeometry x="350" y="90" width="120" height="60" as="geometry" />
        </mxCell>
        <mxCell id="RpSjGXsyV4qDIMZ8VOqI-2" value="&lt;div&gt;Garmin Chronograph&lt;/div&gt;" style="rounded=1;whiteSpace=wrap;html=1;fontStyle=1" parent="1" vertex="1">
          <mxGeometry x="190" y="90" width="120" height="60" as="geometry" />
        </mxCell>
        <mxCell id="RpSjGXsyV4qDIMZ8VOqI-3" value="&lt;div&gt;Kestrel Weather&lt;/div&gt;" style="rounded=1;whiteSpace=wrap;html=1;fontStyle=1" parent="1" vertex="1">
          <mxGeometry x="120" y="240" width="120" height="60" as="geometry" />
        </mxCell>
        <mxCell id="RpSjGXsyV4qDIMZ8VOqI-4" value="GIS" style="rounded=1;whiteSpace=wrap;html=1;fontStyle=1" parent="1" vertex="1">
          <mxGeometry x="270" y="240" width="120" height="60" as="geometry" />
        </mxCell>
        <mxCell id="RpSjGXsyV4qDIMZ8VOqI-5" value="&lt;div&gt;Custom Cartridges&lt;/div&gt;" style="rounded=1;whiteSpace=wrap;html=1;fontStyle=1" parent="1" vertex="1">
          <mxGeometry x="425" y="240" width="120" height="60" as="geometry" />
        </mxCell>
        <mxCell id="CW-867CtmDsfOAteiKHL-1" value="" style="shape=flexArrow;endArrow=classic;html=1;rounded=0;endWidth=58;endSize=14.06;width=70;fontStyle=1" edge="1" parent="1">
          <mxGeometry width="50" height="50" relative="1" as="geometry">
            <mxPoint x="330.32000000000005" y="320" as="sourcePoint" />
            <mxPoint x="329.5" y="460" as="targetPoint" />
          </mxGeometry>
        </mxCell>
        <mxCell id="CW-867CtmDsfOAteiKHL-5" value="&lt;b&gt;&lt;font style=&quot;font-size: 16px;&quot;&gt;MERGE&lt;/font&gt;&lt;/b&gt;" style="edgeLabel;html=1;align=center;verticalAlign=middle;resizable=0;points=[];" vertex="1" connectable="0" parent="CW-867CtmDsfOAteiKHL-1">
          <mxGeometry x="-0.1879" y="-4" relative="1" as="geometry">
            <mxPoint x="4" as="offset" />
          </mxGeometry>
        </mxCell>
        <mxCell id="CW-867CtmDsfOAteiKHL-3" value="&lt;b&gt;&lt;font style=&quot;font-size: 27px;&quot;&gt;DOPE&lt;/font&gt;&lt;/b&gt;" style="rounded=1;whiteSpace=wrap;html=1;" vertex="1" parent="1">
          <mxGeometry x="230" y="490" width="200" height="70" as="geometry" />
        </mxCell>
      </root>
    </mxGraphModel>
  </diagram>
</mxfile>
